<?xml version="1.0" encoding="UTF-8"?>
<svg version="1.1" xmlns="http://www.w3.org/2000/svg" width="93" height="27">
<path d="M0 0 C8.91 0 17.82 0 27 0 C27 8.91 27 17.82 27 27 C18.09 27 9.18 27 0 27 C0 18.09 0 9.18 0 0 Z " fill="#EA6368" transform="translate(0,0)"/>
<path d="M0 0 C0.99 0 1.98 0 3 0 C3 1.32 3 2.64 3 4 C3.99 4 4.98 4 6 4 C6 4.99 6 5.98 6 7 C5.01 7 4.02 7 3 7 C3 8.98 3 10.96 3 13 C5.9788611 12.27596929 5.9788611 12.27596929 7.4375 10.4375 C9 9 9 9 13 9 C13 8.34 13 7.68 13 7 C11.35 7.33 9.7 7.66 8 8 C8 6.68 8 5.36 8 4 C10.25 3.3125 10.25 3.3125 13 3 C15.15625 4.15625 15.15625 4.15625 17 6 C17.53610066 9.40423922 17.1800811 12.53343877 17 16 C11.39 16 5.78 16 0 16 C0 13.03 0 10.06 0 7 C-1.65 7.33 -3.3 7.66 -5 8 C-5.33 10.64 -5.66 13.28 -6 16 C-7.32 16 -8.64 16 -10 16 C-10 12.04 -10 8.08 -10 4 C-3.375 2.875 -3.375 2.875 0 4 C0 2.68 0 1.36 0 0 Z M10 12 C10.66 12.66 11.32 13.32 12 14 C12.33 13.34 12.66 12.68 13 12 C12.01 12 11.02 12 10 12 Z " fill="#FBFBFB" transform="translate(71,6)"/>
<path d="M0 0 C8.34545455 -0.49090909 8.34545455 -0.49090909 11.5 1.875 C13 4 13 4 14 6 C14.7425 5.649375 15.485 5.29875 16.25 4.9375 C19.15780946 3.94620132 20.23482558 3.76043905 23 5 C25.31332486 8.46998729 25.33957563 9.92509248 25 14 C24.01 15.485 24.01 15.485 23 17 C21.125 17.36328125 21.125 17.36328125 19 17.3125 C18.29875 17.30863281 17.5975 17.30476563 16.875 17.30078125 C15 17 15 17 13 15 C12.60235737 13.01178687 12.26224651 11.01055661 12 9 C11.34 9.66 10.68 10.32 10 11 C6.875 11.125 6.875 11.125 4 11 C4 12.98 4 14.96 4 17 C2.68 17 1.36 17 0 17 C0 11.39 0 5.78 0 0 Z M4 3 C4 4.65 4 6.3 4 8 C5.32 8 6.64 8 8 8 C8.33 7.01 8.66 6.02 9 5 C8.34 4.34 7.68 3.68 7 3 C6.01 3 5.02 3 4 3 Z M17 8 C16.67 9.65 16.34 11.3 16 13 C17.485 13.99 17.485 13.99 19 15 C19.66 14.34 20.32 13.68 21 13 C20.67958603 10.39719432 20.67958603 10.39719432 20 8 C19.01 8 18.02 8 17 8 Z " fill="#FBFBFB" transform="translate(35,5)"/>
<path d="M0 0 C1.875 1.5 1.875 1.5 3 3 C1.03177114 4.96822886 -2.34808709 4.66248381 -5 5 C-3.68 5.66 -2.36 6.32 -1 7 C-1 6.34 -1 5.68 -1 5 C0.32 5 1.64 5 3 5 C2.75390625 6.890625 2.75390625 6.890625 2 9 C0.15234375 10.046875 0.15234375 10.046875 -2.0625 10.75 C-3.16271484 11.11351562 -3.16271484 11.11351562 -4.28515625 11.484375 C-5.13400391 11.73960938 -5.13400391 11.73960938 -6 12 C-3.69 12.33 -1.38 12.66 1 13 C1.33 13.99 1.66 14.98 2 16 C-1.19405084 17.59702542 -4.53271429 17.50343003 -8 17 C-10 15.375 -10 15.375 -11 13 C-11.1875 9.75 -11.1875 9.75 -11 7 C-10.34 6.67 -9.68 6.34 -9 6 C-9 4.35 -9 2.7 -9 1 C-5.72429875 -0.09190042 -3.43202271 -0.28600189 0 0 Z " fill="#FCF0F0" transform="translate(17,5)"/>
<path d="M0 0 C0.99 0 1.98 0 3 0 C3 5.61 3 11.22 3 17 C2.01 17 1.02 17 0 17 C0 11.39 0 5.78 0 0 Z " fill="#FBFBFB" transform="translate(90,5)"/>
<path d="M0 0 C0.33 0.66 0.66 1.32 1 2 C-0.32 2 -1.64 2 -3 2 C-3 2.66 -3 3.32 -3 4 C-4.65 4 -6.3 4 -8 4 C-8.33 3.01 -8.66 2.02 -9 1 C-4.545 0.505 -4.545 0.505 0 0 Z " fill="#F1989B" transform="translate(19,8)"/>
<path d="M0 0 C0 0.99 0 1.98 0 3 C-2.3431213 2.74438677 -4.67843403 2.40729228 -7 2 C-7.33 1.34 -7.66 0.68 -8 0 C-4.71303767 -0.79953138 -3.28976808 -1.09658936 0 0 Z " fill="#EC7075" transform="translate(18,16)"/>
</svg>
