<svg id="Layer_1" data-name="Layer 1" xmlns="http://www.w3.org/2000/svg" viewBox="0 0 74.04 21.37"><defs><style>.cls-1{fill:#ea6267;}.cls-1,.cls-4{fill-rule:evenodd;}.cls-2{fill:#fcfcfc;}.cls-3{fill:#fff;}.cls-4{fill:#fefefe;}</style></defs><title>portaldark</title><g id="Layer_1-2" data-name="Layer_1"><path class="cls-1" d="M.76,0H20.93a.65.65,0,0,1,.6.6V20.77a.65.65,0,0,1-.6.6H.76a.65.65,0,0,1-.6-.6V.6A.65.65,0,0,1,.76,0Z" transform="translate(-0.16 0)"/><path class="cls-2" d="M32.66,10.83h1.21c.3-.3.6-.3.6-.6.3-.3.6-.6.6-.9s.3-.6.3-.9-.3-.6-.3-.91a.65.65,0,0,0-.6-.6.65.65,0,0,0-.6-.6c-.3,0-.91-.3-1.21-.3h-1.8v4.81Zm0-6.62c.91,0,1.51.3,2.11.3l1.81.91c.3.3.6.9.9,1.2,0,.6.3,1.21.3,1.81s-.3,1.2-.3,1.8a2.34,2.34,0,0,1-1.21,1.21,1.65,1.65,0,0,1-1.5.9,4.47,4.47,0,0,1-2.11.3h-1.8v4.82H28.45V4.21ZM42.9,7.83a4.26,4.26,0,0,1,1.8.6,1.66,1.66,0,0,1,1.51.9,6.56,6.56,0,0,1,.9,1.5,3.87,3.87,0,0,1,.3,1.81,4.49,4.49,0,0,1-.3,2.11,6.56,6.56,0,0,1-.9,1.5,7,7,0,0,1-1.51.91,3.81,3.81,0,0,1-1.8.3,3.83,3.83,0,0,1-1.81-.3,6.92,6.92,0,0,1-1.5-.91,6.21,6.21,0,0,1-.91-1.5,4.49,4.49,0,0,1-.3-2.11,3.87,3.87,0,0,1,.3-1.81,6.21,6.21,0,0,1,.91-1.5,1.65,1.65,0,0,1,1.5-.9A4.26,4.26,0,0,1,42.9,7.83Zm0,8.12a2.14,2.14,0,0,0,1.8-.9,4.69,4.69,0,0,0,.6-2.41,3.53,3.53,0,0,0-.6-2.11,2.14,2.14,0,0,0-1.8-.9,1.82,1.82,0,0,0-1.81.9,3.53,3.53,0,0,0-.6,2.11,4.69,4.69,0,0,0,.6,2.41A1.82,1.82,0,0,0,42.9,16Zm8.42-6.32a4,4,0,0,1,.91-1.2c.6-.3.9-.6,1.5-.6s.9.3,1.2.3l-.3,1.8v.3h-1.8c-.3,0-.6,0-.6.3-.31,0-.31.3-.31.61-.3,0-.3.3-.6.6v5.72h-2.1V8.13H51c0,.3,0,.3.3.6Zm7.83,7.83c-.9,0-1.51,0-1.81-.61a2.2,2.2,0,0,1-.6-1.8V9.63h-1.5V8.43l1.5-.3L57,5.72l.3-.3.3-.3h1.21v3h2.4v1.5h-2.4v5.12c0,.3,0,.6.3.6,0,.3.3.3.6.3h.6v-.3h.3a.29.29,0,0,0,.3.3l.61,1.2c-.31,0-.61.31-1.21.61Zm8.43-3.92H66.07c-.3,0-.9.3-1.2.3,0,.31-.3.31-.3.61-.31,0-.31.3-.31.6s0,.6.31.6a1.1,1.1,0,0,0,.9.3c.6,0,.9,0,1.2-.3.3,0,.6-.3.91-.6ZM62.46,9.33a6.35,6.35,0,0,1,3.91-1.5,13.25,13.25,0,0,1,1.51.3c.3.3.9.6,1.2.9s.3.6.6.9a13.25,13.25,0,0,0,.3,1.51v6h-1.2a.29.29,0,0,1-.3-.3c-.3,0-.3,0-.3-.31l-.3-.6-.61.6c-.3,0-.6.31-.9.31,0,.3-.3.3-.6.3H63.66c-.3-.3-.6-.3-.9-.61,0-.3-.3-.3-.3-.6a1.8,1.8,0,0,1-.3-1.2v-.6c.3-.3.3-.61.6-.91l.6-.6c.3,0,.6-.3.9-.3a2.75,2.75,0,0,1,1.51-.3,3.83,3.83,0,0,1,1.81-.3v-.6c0-.61,0-.91-.31-1.21a1.56,1.56,0,0,0-1.2-.6,1.1,1.1,0,0,0-.9.3c-.3,0-.3,0-.6.3h-.31a.93.93,0,0,1-.6.3h-.3l-.3-.3ZM74.2,3.91V17.46H72.09V3.91Z" transform="translate(-0.16 0)"/><g id="_2319687110064" data-name=" 2319687110064"><path class="cls-3" d="M11,14.75a3.37,3.37,0,0,1-2.4-.91c0-.3-.31-.9-.31-1.2,4.82,0,7.83-1.2,7.83-4.21a1.83,1.83,0,0,0-.3-1.21,18.66,18.66,0,0,1-3,.91v.3c0,1.2-1.51,1.5-4.21,1.5a4.59,4.59,0,0,1,1.5-2.1,7.21,7.21,0,0,1-2.71-.61,1.12,1.12,0,0,0-.3.91v1.8a.29.29,0,0,1-.3.3h-.3s-.3-.3,0-.3V8.43c0-.3,0-.3.3-.3a2.3,2.3,0,0,1,.3-1.21A9.42,9.42,0,0,0,5,12.34a4.75,4.75,0,0,0,5.12,5.12,14.43,14.43,0,0,0,5.42-1.21l-.91-2.41A7.88,7.88,0,0,1,11,14.75Z" transform="translate(-0.16 0)"/><path class="cls-4" d="M16.11,6.62A29,29,0,0,1,11.9,7.83,18.52,18.52,0,0,1,8,6.92c-.3,0-.6-.3-.9-.3q-.9-.45-.9-.9c0-.6,4.21-1.81,5.72-1.81S17.92,6,16.11,6.62Z" transform="translate(-0.16 0)"/></g></g></svg>