<?xml version="1.0" encoding="UTF-8"?>
<!DOCTYPE svg PUBLIC "-//W3C//DTD SVG 1.1//EN" "http://www.w3.org/Graphics/SVG/1.1/DTD/svg11.dtd">
<!-- Creator: CorelDRAW X7 -->
<svg xmlns="http://www.w3.org/2000/svg" xml:space="preserve" width="26.2308mm" height="7.5384mm" version="1.1" style="shape-rendering:geometricPrecision; text-rendering:geometricPrecision; image-rendering:optimizeQuality; fill-rule:evenodd; clip-rule:evenodd"
viewBox="0 0 246 71"
 xmlns:xlink="http://www.w3.org/1999/xlink">
 <defs>
  <style type="text/css">
   <![CDATA[
    .fil0 {fill:#EA6267}
    .fil3 {fill:#FEFEFE}
    .fil1 {fill:#4D4D4D;fill-rule:nonzero}
    .fil2 {fill:white;fill-rule:nonzero}
   ]]>
  </style>
 </defs>
 <g id="Layer_x0020_1">
  <metadata id="CorelCorpID_0Corel-Layer"/>
  <path class="fil0" d="M2 0l67 0c1,0 2,1 2,2l0 67c0,1 -1,2 -2,2l-67 0c-1,0 -2,-1 -2,-2l0 -67c0,-1 1,-2 2,-2z"/>
  <path class="fil1" d="M108 36c1,0 2,0 4,0 1,-1 2,-1 2,-2 1,-1 2,-2 2,-3 0,-1 1,-2 1,-3 0,-1 -1,-2 -1,-3 0,-1 -1,-2 -2,-2 0,-1 -1,-2 -2,-2 -1,0 -3,-1 -4,-1l-6 0 0 16 6 0zm0 -22c3,0 5,1 7,1 2,1 4,2 6,3 1,1 2,3 3,4 0,2 1,4 1,6 0,2 -1,4 -1,6 -1,2 -2,3 -4,4 -1,2 -3,3 -5,3 -2,1 -4,1 -7,1l-6 0 0 16 -8 0 0 -44 14 0zm34 12c2,0 4,1 6,2 2,0 4,1 5,3 1,1 2,3 3,5 1,2 1,4 1,6 0,3 0,5 -1,7 -1,2 -2,4 -3,5 -1,1 -3,2 -5,3 -2,1 -4,1 -6,1 -2,0 -4,0 -6,-1 -2,-1 -4,-2 -5,-3 -1,-1 -2,-3 -3,-5 -1,-2 -1,-4 -1,-7 0,-2 0,-4 1,-6 1,-2 2,-4 3,-5 1,-2 3,-3 5,-3 2,-1 4,-2 6,-2zm0 27c3,0 4,-1 6,-3 1,-2 2,-4 2,-8 0,-3 -1,-6 -2,-7 -2,-2 -3,-3 -6,-3 -3,0 -5,1 -6,3 -1,1 -2,4 -2,7 0,4 1,6 2,8 1,2 3,3 6,3zm28 -21c1,-2 2,-3 3,-4 2,-1 3,-2 5,-2 2,0 3,1 4,1l-1 6c0,0 0,0 0,1 0,0 -1,0 -1,0 0,0 -1,0 -1,0 -1,0 -2,0 -2,0 -1,0 -2,0 -2,0 -1,0 -2,0 -2,1 -1,0 -1,1 -1,2 -1,0 -1,1 -2,2l0 19 -7 0 0 -31 4 0c1,0 2,0 2,0 0,1 0,1 1,2l0 3zm26 26c-3,0 -5,0 -6,-2 -2,-2 -2,-4 -2,-6l0 -18 -4 0c0,0 0,0 -1,0 0,0 0,-1 0,-1l0 -3 5 -1 1 -8c1,-1 1,-1 1,-1 0,0 1,-1 1,-1l4 0 0 10 8 0 0 5 -8 0 0 17c0,1 0,2 1,2 0,1 1,1 2,1 0,0 0,0 1,0 0,0 0,0 1,0 0,0 0,0 0,-1 0,0 1,0 1,0 0,0 0,0 0,0 0,1 1,1 1,1l2 4c-1,0 -2,1 -4,2 -1,0 -3,0 -4,0zm28 -13c-2,0 -4,0 -5,0 -1,0 -3,1 -4,1 0,1 -1,1 -1,2 -1,0 -1,1 -1,2 0,1 0,2 1,2 1,1 2,1 3,1 2,0 3,0 4,-1 1,0 2,-1 3,-2l0 -5zm-17 -14c4,-3 8,-5 13,-5 2,0 4,1 5,1 1,1 3,2 4,3 1,1 1,2 2,3 0,2 1,4 1,5l0 20 -4 0c0,0 -1,0 -1,-1 -1,0 -1,0 -1,-1l-1 -2c-1,1 -1,1 -2,2 -1,0 -2,1 -3,1 0,1 -1,1 -2,1 -1,0 -2,0 -3,0 -1,0 -3,0 -4,0 -1,-1 -2,-1 -3,-2 0,-1 -1,-1 -1,-2 -1,-1 -1,-3 -1,-4 0,-1 0,-2 0,-2 1,-1 1,-2 2,-3 0,0 1,-1 2,-2 1,0 2,-1 3,-1 2,-1 3,-1 5,-1 2,-1 4,-1 6,-1l0 -2c0,-2 0,-3 -1,-4 -1,-1 -2,-2 -4,-2 -1,0 -2,0 -3,1 -1,0 -1,0 -2,1 0,0 -1,0 -1,0 -1,1 -2,1 -2,1 -1,0 -1,0 -1,0 -1,-1 -1,-1 -1,-1l-2 -3zm39 -18l0 45 -7 0 0 -45 7 0z"/>
  <g id="_2319687110064">
   <path class="fil2" d="M36 49c-3,0 -6,-1 -8,-3 0,-1 -1,-3 -1,-4 16,0 26,-4 26,-14 0,-1 0,-3 -1,-4 -2,1 -6,2 -10,3 0,0 0,1 0,1 0,4 -5,5 -14,5 1,-2 2,-5 5,-7 -3,0 -7,-1 -9,-2 -1,1 -1,2 -1,3 0,0 0,1 0,1l0 5c0,1 -1,1 -1,1l-1 0c0,0 -1,-1 0,-1l0 -5c0,-1 0,-1 1,-1 0,-1 0,-2 1,-4 -4,5 -7,12 -7,18 0,10 6,17 17,17 7,0 13,-2 18,-4l-3 -8c-4,2 -8,3 -12,3z"/>
   <path class="fil3" d="M53 22c0,0 -8,3 -14,4 -4,0 -9,-2 -13,-3 -1,0 -2,-1 -3,-1 -2,-1 -3,-2 -3,-3 0,-2 14,-6 19,-6 5,0 20,7 14,9z"/>
  </g>
 </g>
</svg>
